<svg width="32" height="31" viewBox="0 0 32 31" fill="none" xmlns="http://www.w3.org/2000/svg">
<path d="M22 27.125H12V7.75H25V19.3104L22 21.2802V27.125Z" fill="black"/>
<path d="M22 3.875H10C6.6916 3.875 4 6.5666 4 9.875V21.875C4 25.1834 6.6916 27.875 10 27.875H16V17.875H14.6C14.0477 17.875 13.6 17.4273 13.6 16.875C13.6 16.3227 14.0477 15.875 14.6 15.875H16V14.1001C16 11.7703 17.8953 9.875 20.2251 9.875H22.4C22.9523 9.875 23.4 10.3227 23.4 10.875C23.4 11.4273 22.9523 11.875 22.4 11.875H20.2251C18.9981 11.875 18 12.8731 18 14.1001V15.875H22C22.5523 15.875 23 16.3227 23 16.875C23 17.4273 22.5523 17.875 22 17.875H18V27.875H22C25.3084 27.875 28 25.1834 28 21.875V9.875C28 6.5666 25.3084 3.875 22 3.875Z" fill="white"/>
</svg>
