<svg width="32" height="31" viewBox="0 0 32 31" fill="none" xmlns="http://www.w3.org/2000/svg">
<path d="M25.8001 6.2002H6.6001V24.2189H25.8001V6.2002Z" fill="black"/>
<path d="M20.3819 15.9026C20.3819 18.3339 18.4037 20.3121 15.9724 20.3121C13.5411 20.3121 11.5629 18.3339 11.5629 15.9026C11.5629 13.4713 13.5411 11.4931 15.9724 11.4931C18.4037 11.4931 20.3819 13.4711 20.3819 15.9026ZM28 9.875V21.875C28 25.1834 25.3084 27.875 22 27.875H10C6.6916 27.875 4 25.1834 4 21.875V9.875C4 6.5666 6.6916 3.875 10 3.875H22C25.3084 3.875 28 6.5666 28 9.875ZM22.5448 15.9026C22.5448 12.2785 19.5965 9.3302 15.9724 9.3302C12.3483 9.3302 9.4 12.2785 9.4 15.9026C9.4 19.5267 12.3483 22.475 15.9724 22.475C19.5965 22.475 22.5448 19.5267 22.5448 15.9026ZM25 8.4374C25 7.5746 24.3004 6.875 23.4376 6.875C22.5748 6.875 21.8752 7.5746 21.8752 8.4374C21.8752 9.3002 22.5748 9.9998 23.4376 9.9998C24.3004 9.99967 25 9.3002 25 8.4374Z" fill="white"/>
</svg>
