<svg width="26" height="21" viewBox="0 0 26 21" fill="none" xmlns="http://www.w3.org/2000/svg">
<path d="M26 4.63965V17.0625C26.0001 18.0669 25.62 19.0333 24.9375 19.764C24.2551 20.4947 23.3219 20.9346 22.3288 20.9935L22.1 21H3.9C2.90523 21.0001 1.94803 20.6164 1.22426 19.9274C0.500491 19.2383 0.0648602 18.2961 0.00650015 17.2935L0 17.0625V4.63965L12.2785 12.9045L12.4293 12.9911C12.607 13.0788 12.8022 13.1244 13 13.1244C13.1978 13.1244 13.393 13.0788 13.5707 12.9911L13.7215 12.9045L26 4.63965Z" fill="white"/>
<path d="M22.1001 0C23.5041 0 24.7352 0.748129 25.4216 1.87295L13.0001 10.2336L0.578613 1.87295C0.904643 1.33853 1.35249 0.890537 1.88482 0.566333C2.41714 0.242129 3.01852 0.0511054 3.63881 0.00918751L3.90011 0H22.1001Z" fill="white"/>
</svg>
