<svg width="24" height="29" viewBox="0 0 24 29" fill="none" xmlns="http://www.w3.org/2000/svg">
<path d="M12 0C8.81856 0.00356334 5.76849 1.20502 3.51887 3.34083C1.26925 5.47663 0.00376077 8.37238 7.53183e-06 11.3929C-0.00291756 13.8611 0.846233 16.2622 2.41746 18.2286C2.41746 18.2286 2.74473 18.6377 2.79819 18.6967L12 29L21.2062 18.6915C21.2542 18.6366 21.5825 18.2286 21.5825 18.2286L21.5836 18.2255C23.1538 16.2598 24.0025 13.8599 24 11.3929C23.9962 8.37238 22.7308 5.47663 20.4811 3.34083C18.2315 1.20502 15.1814 0.00356334 12 0ZM12 15.5357C11.137 15.5357 10.2933 15.2927 9.5757 14.8375C8.8581 14.3823 8.2988 13.7353 7.96853 12.9783C7.63825 12.2213 7.55184 11.3883 7.72021 10.5846C7.88858 9.78099 8.30418 9.0428 8.91444 8.46341C9.52471 7.88403 10.3022 7.48946 11.1487 7.3296C11.9952 7.16975 12.8725 7.25179 13.6699 7.56536C14.4672 7.87892 15.1487 8.40992 15.6282 9.09121C16.1077 9.7725 16.3636 10.5735 16.3636 11.3929C16.3622 12.4912 15.902 13.5441 15.084 14.3208C14.2659 15.0974 13.1569 15.5343 12 15.5357Z" fill="white"/>
</svg>
