<svg width="72" height="58" viewBox="0 0 72 58" fill="none" xmlns="http://www.w3.org/2000/svg">
<path d="M60.8978 42.1907C60.8978 42.1907 62.1735 38.8335 62.8417 36.6333C63.3261 35.0385 63.6315 34.1483 63.9584 32.5137C64.2036 31.2882 64.5375 29.9424 64.4272 29.3479C64.3169 28.7535 64.179 28.705 64.0825 28.6152C63.986 28.5255 61.4079 26.7904 61.3252 26.7766C61.2425 26.7628 61.0736 26.6181 60.9392 26.6937C60.7934 26.7757 60.7954 26.9133 60.7875 27.0808C60.7747 27.3519 60.9224 27.5254 61.0357 27.772C61.2051 28.1408 61.357 28.3271 61.6423 28.6152C61.8775 28.8528 62.0206 28.9882 62.3178 29.1406C62.5361 29.2525 62.6697 29.3026 62.9107 29.3479C63.207 29.4036 63.6827 29.3479 63.6827 29.3479C63.6827 29.3479 63.3271 29.4748 63.0899 29.5138C62.7392 29.5715 62.5672 29.5403 62.2213 29.4585C61.8955 29.3815 61.7868 29.3306 61.532 29.1129C61.2943 28.9098 61.1024 28.7578 60.9392 28.4908C60.7416 28.1676 60.5539 27.9864 60.4153 27.6337C60.3054 27.3541 60.2289 27.1323 60.2361 26.8319C60.2411 26.6198 60.2589 26.5048 60.4153 26.3619C60.5399 26.248 60.6629 26.2119 60.8289 26.1822C61.078 26.1376 61.2329 26.1751 61.4751 26.2337L61.4906 26.2375C61.7505 26.3003 61.8638 26.4248 62.0972 26.5554C62.3883 26.7183 62.8279 26.9978 62.8279 26.9978C62.8279 26.9978 63.336 27.4441 63.6827 27.7028C63.878 27.8486 63.9565 28.0037 64.1928 28.0623C64.3496 28.1011 64.4623 28.1355 64.6064 28.0623C64.7576 27.9855 64.7988 27.8654 64.8538 27.7051L64.8546 27.7028C64.9211 27.5089 64.8546 27.3827 64.8546 27.1775C64.8546 26.859 64.9211 26.6734 64.8546 26.3619C64.8139 26.1716 64.7641 26.0714 64.6891 25.8919C64.6008 25.6803 64.5568 25.5555 64.4272 25.3665C64.2847 25.1589 64.1505 25.018 63.986 24.8274C63.7978 24.6094 63.6656 24.4988 63.5035 24.2606C63.3619 24.0526 63.2952 23.9882 63.1588 23.7768C63.0453 23.6007 62.9859 23.4845 62.8555 23.3205C62.7083 23.1354 62.6528 23.043 62.4833 22.8782C62.3382 22.7371 62.2472 22.627 62.0972 22.4911C61.9728 22.3783 61.7802 22.2423 61.7802 22.2423C61.7802 22.2423 61.6135 22.1235 61.4906 22.1178C61.3528 22.1115 61.2572 22.1443 61.1598 22.2423C61.0729 22.3296 61.0662 22.4131 61.0357 22.5326C60.9862 22.7261 61.0104 22.8459 61.0357 23.0441C61.0604 23.2376 61.0909 23.3454 61.1598 23.5279C61.2373 23.7335 61.2969 23.8449 61.4217 24.0256C61.6081 24.2955 61.7557 24.43 62.0007 24.6477C62.2708 24.8876 62.4428 24.9895 62.7452 25.1868C63.1973 25.4818 63.986 25.7951 63.986 25.7951L64.4272 26.0025C64.4272 26.0025 63.9568 26.0042 63.7103 25.9472C63.3518 25.8642 63.2337 25.857 62.9107 25.7121C62.6339 25.5881 62.5045 25.53 62.2489 25.3665L62.2294 25.3541C62.0166 25.218 61.8817 25.1317 61.6836 24.9656C61.4494 24.7691 61.3341 24.6641 61.1598 24.4127C60.9809 24.1548 60.8904 23.9991 60.7737 23.7076C60.6575 23.4172 60.6047 23.2442 60.5669 22.9335C60.5344 22.6655 60.5076 22.5056 60.5669 22.2423C60.6132 22.0369 60.6243 21.8925 60.7737 21.7446C60.8937 21.6258 60.9953 21.5882 61.1598 21.551C61.3982 21.4971 61.5458 21.5643 61.7802 21.634C61.972 21.691 62.0775 21.7379 62.2489 21.8414C62.5101 21.9991 62.6264 22.1372 62.8279 22.3667C62.9909 22.5523 63.0599 22.6748 63.2002 22.8782C63.3574 23.106 63.4296 23.2444 63.5862 23.4726C63.737 23.6923 63.8286 23.8106 63.986 24.0256C64.1504 24.2502 64.2467 24.3788 64.4082 24.5946L64.4272 24.62C64.5933 24.842 64.6428 25.0081 64.8546 25.1868C64.9494 25.2669 64.9971 25.3333 65.1165 25.3665C65.2151 25.3939 65.2854 25.4091 65.3785 25.3665C65.4651 25.3269 65.5439 25.1868 65.5439 25.1868V24.703V23.915V22.5326C65.5439 22.5326 65.4311 21.7364 65.3233 21.2331C65.2004 20.6595 65.0876 20.3485 64.9373 19.7815C64.8185 19.3335 64.7169 19.0902 64.634 18.6341C64.5824 18.3502 64.5303 18.1893 64.5099 17.9014C64.4858 17.5622 64.4638 17.326 64.5099 16.989C64.5346 16.8086 64.565 16.6573 64.634 16.5743C64.7029 16.4914 64.7697 16.4814 64.8684 16.4499C65.0348 16.3966 65.1449 16.417 65.3146 16.4483L65.3233 16.4499C65.469 16.4768 65.5513 16.504 65.6818 16.5743C65.9065 16.6954 65.9953 16.8275 66.1505 17.0305C66.3147 17.2452 66.3718 17.3915 66.4814 17.6388C66.5948 17.8947 66.6528 18.0434 66.7158 18.3162C66.7685 18.5445 66.7767 18.6772 66.7985 18.9106C66.8431 19.389 66.8308 19.9196 66.7985 20.141C66.7662 20.3623 66.7481 20.4035 66.7158 20.6248C66.6835 20.8462 66.6216 21.0503 66.5365 21.2607C66.4153 21.5606 66.1505 21.9934 66.1505 21.9934C66.1505 21.9934 66.268 21.5318 66.3297 21.2331C66.3996 20.895 66.4445 20.7054 66.4814 20.3622C66.542 19.7986 66.5649 19.4713 66.4814 18.9106C66.4214 18.5078 66.3937 18.2693 66.2194 17.9014C66.122 17.6957 66.0486 17.5888 65.9161 17.4038C65.8068 17.251 65.758 17.1495 65.6128 17.0305L65.6101 17.0283C65.483 16.924 65.4021 16.8577 65.2406 16.8231C65.1247 16.7984 65.0476 16.8093 64.9786 16.8646C64.9097 16.9199 64.8821 17.1826 64.8821 17.1826C64.8821 17.1826 64.8566 17.5398 64.8684 17.777C64.8812 18.0372 64.9373 18.4406 64.9373 18.4406L65.1165 19.0627L65.3233 19.7815L65.475 20.3622L65.7921 21.634C65.7921 21.634 65.861 21.8966 65.9713 22.5326C66.0816 23.1685 65.861 24.62 65.9437 24.7583C66.0264 24.8965 66.5723 24.1309 67.0053 23.7629C67.6847 23.1855 68.0582 22.8256 68.8527 22.422C69.2424 22.2239 69.454 22.0542 69.8867 21.9934C70.1266 21.9597 70.2836 21.8996 70.5071 21.9934C70.6661 22.0602 70.725 22.1059 70.8104 22.2561C70.9251 22.4577 70.8894 22.6353 70.8517 22.8643C70.8215 23.048 70.7782 23.1459 70.7139 23.3205C70.6255 23.5607 70.5747 23.6157 70.4381 23.832C70.295 24.0586 70.1726 24.238 69.997 24.4403C69.8643 24.5932 69.7947 24.6836 69.6523 24.8274C69.4235 25.0584 69.2992 25.177 69.0457 25.3804C68.7211 25.6407 68.5234 25.7942 68.1634 26.0025C67.641 26.3046 66.7158 26.5416 66.7158 26.5416C66.7158 26.5416 67.628 26.1388 68.1634 25.7951C68.6068 25.5104 68.8565 25.3426 69.2387 24.9795C69.5656 24.6689 69.7621 24.4937 69.997 24.1085C70.1402 23.8737 70.1973 23.7278 70.3003 23.4726C70.3942 23.24 70.4795 23.0579 70.4795 22.8505C70.4795 22.6977 70.4271 22.6172 70.3003 22.5326C70.1299 22.4189 70.0011 22.45 69.804 22.5049C69.5558 22.574 69.3643 22.6635 69.1146 22.7814C68.8439 22.9092 68.7009 23.0007 68.4529 23.1685C68.1134 23.3981 67.9455 23.5592 67.6395 23.832C67.3833 24.0604 67.2527 24.2025 67.0053 24.4403C66.7249 24.7099 66.5347 24.8304 66.2884 25.1315C66.0639 25.4059 65.7921 25.8919 65.7921 25.8919C65.7921 25.8919 65.7367 26.2282 65.7093 26.4448C65.63 27.0726 65.5807 27.4303 65.6128 28.0623C65.6302 28.404 65.6039 28.6077 65.7093 28.9332C65.7755 29.1376 65.7926 29.2784 65.9437 29.4309C66.088 29.5765 66.2283 29.5764 66.4125 29.6659C66.6422 29.7775 66.7607 29.8687 67.0053 29.9424C67.2452 30.0146 67.4873 30.0781 67.736 30.1083C68.0791 30.1499 68.1768 30.1291 68.5218 30.1083C68.7171 30.0965 68.8265 30.0789 69.0181 30.0391C69.3283 29.9748 69.506 29.9304 69.7902 29.7903C70.0649 29.6549 70.2057 29.5798 70.3692 29.3203C70.4885 29.1309 70.5656 29.0176 70.5898 28.795C70.6184 28.5311 70.5922 28.3507 70.4657 28.1176C70.3392 27.8842 70.2347 27.8201 69.997 27.7028C69.7906 27.6011 69.6617 27.5978 69.4317 27.5922C69.181 27.5862 69.052 27.6324 68.8113 27.7028C67.8784 27.9758 66.4952 28.6152 66.4952 28.6152C66.4952 28.6152 67.6546 27.7476 68.508 27.4264C68.8556 27.2955 69.0611 27.2003 69.4317 27.1775C69.713 27.1602 69.8837 27.164 70.1486 27.2605C70.4083 27.355 70.5481 27.4497 70.7414 27.6475C70.9709 27.8824 71.0889 28.0582 71.155 28.3802C71.1985 28.5917 71.1969 28.7214 71.155 28.9332C71.1017 29.2032 71.0186 29.3505 70.8517 29.5691C70.68 29.7942 70.5356 29.8822 70.3003 30.0391C69.9928 30.2443 69.7888 30.3154 69.4432 30.4361L69.4317 30.44C69.2725 30.4956 69.1825 30.5265 69.0181 30.5645C68.4515 30.6953 68.1033 30.657 67.5292 30.5645C67.2056 30.5123 67.0363 30.4257 66.7158 30.3571C66.3262 30.2738 66.1 30.1135 65.7093 30.1912C65.5289 30.2271 65.3785 30.2742 65.2682 30.3571C65.1579 30.44 64.9511 31.7948 64.9511 31.7948L64.6202 33.0943L63.2002 37.1725C63.2002 37.1725 62.6177 38.7603 62.1662 39.7438C61.717 40.722 60.8978 42.1907 60.8978 42.1907Z" fill="white"/>
<path d="M61.4751 26.2337C61.4803 26.235 61.4854 26.2362 61.4906 26.2375C61.7505 26.3003 61.8638 26.4248 62.0972 26.5554C62.3883 26.7183 62.8279 26.9978 62.8279 26.9978C62.8279 26.9978 63.336 27.4441 63.6827 27.7028C63.878 27.8486 63.9565 28.0037 64.1928 28.0623C64.3496 28.1011 64.4623 28.1355 64.6064 28.0623C64.7576 27.9855 64.7988 27.8654 64.8538 27.7051C64.8541 27.7043 64.8543 27.7036 64.8546 27.7028C64.9211 27.5089 64.8546 27.3827 64.8546 27.1775C64.8546 26.859 64.9211 26.6734 64.8546 26.3619C64.8139 26.1716 64.7641 26.0714 64.6891 25.8919C64.6008 25.6803 64.5568 25.5555 64.4272 25.3665C64.2847 25.1589 64.1505 25.018 63.986 24.8274C63.7978 24.6094 63.6656 24.4988 63.5035 24.2606C63.3619 24.0526 63.2952 23.9882 63.1588 23.7767C63.0453 23.6007 62.9859 23.4845 62.8555 23.3205C62.7083 23.1354 62.6528 23.043 62.4833 22.8782C62.3382 22.7371 62.2472 22.627 62.0972 22.4911C61.9728 22.3783 61.7802 22.2423 61.7802 22.2423C61.7802 22.2423 61.6135 22.1235 61.4906 22.1178C61.3528 22.1115 61.2572 22.1443 61.1598 22.2423C61.0729 22.3296 61.0662 22.4131 61.0357 22.5326C60.9862 22.7261 61.0104 22.8459 61.0357 23.0441C61.0604 23.2376 61.0909 23.3454 61.1598 23.5279C61.2373 23.7335 61.2969 23.8449 61.4217 24.0256C61.6081 24.2955 61.7557 24.43 62.0007 24.6477C62.2708 24.8876 62.4428 24.9895 62.7452 25.1868C63.1973 25.4818 63.986 25.7951 63.986 25.7951L64.4272 26.0025C64.4272 26.0025 63.9568 26.0042 63.7103 25.9472C63.3518 25.8642 63.2337 25.857 62.9107 25.7121C62.6339 25.5881 62.5045 25.53 62.2489 25.3665M61.4906 26.2375L61.4751 26.2337M64.8546 27.7028L64.8538 27.7051M62.2489 25.3665L62.2294 25.3541M62.2489 25.3665C62.2423 25.3623 62.2358 25.3582 62.2294 25.3541M62.2294 25.3541C62.0166 25.218 61.8817 25.1317 61.6836 24.9656C61.4494 24.7691 61.3341 24.6641 61.1598 24.4127C60.9809 24.1548 60.8904 23.9991 60.7737 23.7076C60.6575 23.4172 60.6047 23.2442 60.5669 22.9335C60.5344 22.6655 60.5076 22.5056 60.5669 22.2423C60.6132 22.0369 60.6243 21.8925 60.7737 21.7446C60.8937 21.6258 60.9953 21.5882 61.1598 21.551C61.3982 21.4971 61.5458 21.5643 61.7802 21.634C61.972 21.691 62.0775 21.7379 62.2489 21.8414C62.5101 21.9991 62.6264 22.1372 62.8279 22.3667C62.9909 22.5523 63.0599 22.6748 63.2002 22.8782C63.3574 23.106 63.4296 23.2444 63.5862 23.4726C63.737 23.6923 63.8286 23.8106 63.986 24.0256C64.1504 24.2502 64.2467 24.3788 64.4082 24.5946C64.4144 24.603 64.4207 24.6114 64.4272 24.62C64.5933 24.842 64.6428 25.0081 64.8546 25.1868C64.9494 25.2669 64.9971 25.3333 65.1165 25.3665C65.2151 25.3939 65.2854 25.4091 65.3785 25.3665C65.4651 25.3269 65.5439 25.1868 65.5439 25.1868V24.703M64.4272 24.62L64.4082 24.5946M65.5439 25.1868C65.5439 25.1868 65.5439 24.8919 65.5439 24.703M65.5439 24.703C65.5439 24.3953 65.5439 24.2227 65.5439 23.915M65.5439 24.703V23.915M65.6128 17.0305C65.758 17.1495 65.8068 17.251 65.9161 17.4038C66.0486 17.5888 66.122 17.6957 66.2194 17.9014C66.3937 18.2693 66.4214 18.5078 66.4814 18.9106C66.5649 19.4713 66.542 19.7986 66.4814 20.3622C66.4445 20.7054 66.3996 20.895 66.3297 21.2331C66.268 21.5319 66.1505 21.9934 66.1505 21.9934C66.1505 21.9934 66.4153 21.5606 66.5365 21.2607C66.6216 21.0503 66.6835 20.8462 66.7158 20.6248C66.7481 20.4035 66.7662 20.3623 66.7985 20.141C66.8308 19.9196 66.8431 19.389 66.7985 18.9106C66.7767 18.6772 66.7685 18.5445 66.7158 18.3162C66.6528 18.0434 66.5948 17.8947 66.4814 17.6388C66.3718 17.3915 66.3147 17.2452 66.1505 17.0305C65.9953 16.8275 65.9065 16.6954 65.6818 16.5743C65.5513 16.504 65.469 16.4768 65.3233 16.4499C65.3204 16.4493 65.3175 16.4488 65.3146 16.4483C65.1449 16.417 65.0348 16.3966 64.8684 16.4499C64.7697 16.4814 64.7029 16.4914 64.634 16.5743C64.565 16.6573 64.5346 16.8086 64.5099 16.989C64.4638 17.326 64.4858 17.5622 64.5099 17.9014C64.5303 18.1893 64.5824 18.3502 64.634 18.6341C64.7169 19.0902 64.8185 19.3335 64.9373 19.7815C65.0876 20.3485 65.2004 20.6595 65.3233 21.2331C65.4311 21.7364 65.5439 22.5326 65.5439 22.5326C65.5439 22.5326 65.5439 23.3751 65.5439 23.915M65.5439 23.915V22.5326M65.3233 16.4499L65.3146 16.4483M65.6128 17.0305L65.6101 17.0283M69.4317 30.44C69.4356 30.4387 69.4394 30.4374 69.4432 30.4361C69.7888 30.3154 69.9928 30.2443 70.3003 30.0391C70.5356 29.8822 70.68 29.7942 70.8517 29.5691C71.0186 29.3505 71.1017 29.2032 71.155 28.9332C71.1969 28.7214 71.1985 28.5917 71.155 28.3802C71.0889 28.0582 70.9709 27.8824 70.7414 27.6475C70.5481 27.4497 70.4083 27.355 70.1486 27.2605C69.8837 27.164 69.713 27.1602 69.4317 27.1775C69.0611 27.2003 68.8556 27.2955 68.508 27.4264C67.6546 27.7476 66.4952 28.6152 66.4952 28.6152C66.4952 28.6152 67.8784 27.9758 68.8113 27.7028C69.052 27.6324 69.181 27.5862 69.4317 27.5922C69.6617 27.5978 69.7906 27.6011 69.997 27.7028C70.2347 27.8201 70.3392 27.8842 70.4657 28.1176C70.5922 28.3507 70.6184 28.5311 70.5898 28.795C70.5656 29.0176 70.4885 29.1309 70.3692 29.3203C70.2057 29.5798 70.0649 29.6549 69.7902 29.7903C69.506 29.9304 69.3283 29.9748 69.0181 30.0391C68.8265 30.0789 68.7171 30.0965 68.5218 30.1083C68.1768 30.1291 68.0791 30.1499 67.736 30.1083C67.4873 30.0781 67.2452 30.0146 67.0053 29.9424C66.7607 29.8687 66.6422 29.7775 66.4125 29.6659C66.2283 29.5764 66.088 29.5765 65.9437 29.4309C65.7926 29.2784 65.7755 29.1376 65.7093 28.9332C65.6039 28.6077 65.6302 28.404 65.6128 28.0623C65.5807 27.4303 65.63 27.0726 65.7093 26.4448C65.7367 26.2282 65.7921 25.8919 65.7921 25.8919C65.7921 25.8919 66.0639 25.4059 66.2884 25.1315C66.5347 24.8304 66.7249 24.7099 67.0053 24.4403C67.2527 24.2025 67.3833 24.0604 67.6395 23.832C67.9455 23.5592 68.1134 23.3981 68.4529 23.1685C68.7009 23.0007 68.8439 22.9092 69.1146 22.7814C69.3643 22.6635 69.5558 22.574 69.804 22.5049C70.0011 22.45 70.1299 22.4189 70.3003 22.5326C70.4271 22.6172 70.4795 22.6977 70.4795 22.8505C70.4795 23.0579 70.3942 23.24 70.3003 23.4726C70.1973 23.7278 70.1402 23.8737 69.997 24.1085C69.7621 24.4937 69.5656 24.6689 69.2387 24.9795C68.8565 25.3426 68.6068 25.5104 68.1634 25.7951C67.628 26.1388 66.7158 26.5416 66.7158 26.5416C66.7158 26.5416 67.641 26.3046 68.1634 26.0025C68.5234 25.7942 68.7211 25.6407 69.0457 25.3804C69.2992 25.177 69.4235 25.0584 69.6523 24.8274C69.7947 24.6836 69.8643 24.5932 69.997 24.4403C70.1726 24.238 70.295 24.0586 70.4381 23.832C70.5748 23.6157 70.6255 23.5607 70.7139 23.3205C70.7782 23.1459 70.8215 23.048 70.8517 22.8643C70.8894 22.6353 70.9251 22.4577 70.8104 22.2561C70.725 22.1059 70.6661 22.0602 70.5071 21.9934C70.2836 21.8996 70.1266 21.9597 69.8867 21.9934C69.454 22.0542 69.2424 22.2239 68.8527 22.422C68.0582 22.8256 67.6847 23.1855 67.0053 23.7629C66.5723 24.1309 66.0264 24.8965 65.9437 24.7583C65.861 24.62 66.0816 23.1685 65.9713 22.5326C65.861 21.8966 65.7921 21.634 65.7921 21.634L65.475 20.3622L65.3233 19.7815L65.1165 19.0627L64.9373 18.4406C64.9373 18.4406 64.8812 18.0372 64.8684 17.777C64.8566 17.5398 64.8821 17.1826 64.8821 17.1826C64.8821 17.1826 64.9097 16.9199 64.9786 16.8646C65.0476 16.8093 65.1247 16.7984 65.2406 16.8231C65.4021 16.8577 65.483 16.924 65.6101 17.0283C65.611 17.029 65.6119 17.0298 65.6128 17.0305M69.4317 30.44C69.2725 30.4956 69.1825 30.5265 69.0181 30.5645C68.4515 30.6953 68.1033 30.657 67.5292 30.5645C67.2056 30.5123 67.0363 30.4257 66.7158 30.3571C66.3262 30.2738 66.1 30.1135 65.7093 30.1912C65.5289 30.2271 65.3785 30.2742 65.2682 30.3571C65.1579 30.44 64.9511 31.7948 64.9511 31.7948L64.6202 33.0943L63.2002 37.1725C63.2002 37.1725 62.6177 38.7603 62.1662 39.7438C61.717 40.722 60.8978 42.1907 60.8978 42.1907C60.8978 42.1907 62.1735 38.8335 62.8417 36.6333C63.3261 35.0385 63.6315 34.1483 63.9584 32.5137C64.2036 31.2882 64.5375 29.9424 64.4272 29.3479C64.3169 28.7535 64.179 28.705 64.0825 28.6152C63.986 28.5255 61.4079 26.7904 61.3252 26.7766C61.2425 26.7628 61.0736 26.6181 60.9392 26.6937C60.7934 26.7757 60.7954 26.9133 60.7875 27.0808C60.7747 27.3519 60.9224 27.5254 61.0357 27.772C61.2051 28.1408 61.357 28.3271 61.6423 28.6152C61.8775 28.8528 62.0206 28.9882 62.3178 29.1406C62.5361 29.2525 62.6697 29.3026 62.9107 29.3479C63.207 29.4036 63.6827 29.3479 63.6827 29.3479C63.6827 29.3479 63.3271 29.4748 63.0899 29.5138C62.7392 29.5715 62.5672 29.5403 62.2213 29.4585C61.8955 29.3815 61.7868 29.3306 61.532 29.1129C61.2943 28.9098 61.1024 28.7578 60.9392 28.4908C60.7416 28.1676 60.5539 27.9864 60.4153 27.6337C60.3054 27.3541 60.2289 27.1323 60.2361 26.8319C60.2411 26.6198 60.2589 26.5048 60.4153 26.3619C60.5399 26.248 60.6629 26.2119 60.8289 26.1822C61.078 26.1376 61.2329 26.1751 61.4751 26.2337M69.4317 30.44L69.4432 30.4361" stroke="white"/>
<path d="M48.8716 28.61C48.8716 28.61 49.7504 27.7043 50.4231 27.2721C51.0515 26.8683 51.4489 26.7058 52.153 26.4582C53.0175 26.1542 53.53 25.9802 54.4458 25.9617C55.4561 25.9412 56.0557 26.0611 56.9857 26.4582C57.7495 26.7843 58.1432 27.0711 58.7706 27.6169C59.3853 28.1516 59.6165 28.5673 60.1435 29.1894C60.6397 29.775 60.8612 30.1534 61.3929 30.7067C61.841 31.173 62.1149 31.4141 62.6148 31.824C63.7442 32.75 65.7726 33.824 65.7726 33.824C65.7726 33.824 64.4187 33.7163 63.5621 33.824C62.7905 33.9211 62.3589 34.0308 61.6263 34.293C61.0612 34.4953 60.7403 34.6173 60.2259 34.9275C59.6307 35.2864 59.3411 35.563 58.8392 36.0448C57.8041 37.0386 57.4738 37.8247 56.6837 39.0243C54.9326 41.6829 54.5284 43.5138 52.8806 46.2383C51.8297 47.9761 51.2917 48.9975 50.0249 50.5833C49.21 51.6035 48.7564 52.1929 47.787 53.0662C46.5282 54.2003 45.7045 54.7253 44.2036 55.5077C42.7125 56.285 41.8284 56.7085 40.1809 57.0388C38.7173 57.3321 37.8501 57.3706 36.3641 57.2319C34.6354 57.0705 33.7249 56.6044 32.0668 56.087C30.7276 55.6691 29.9829 55.4105 28.6756 54.9007C25.2108 53.5496 23.5346 52.1966 20.1634 50.6247C17.9205 49.5789 16.6696 48.971 14.3695 48.0591C12.6672 47.3842 11.7252 46.9528 9.96238 46.459C8.69803 46.1049 7.98006 45.917 6.68104 45.728L6.62732 45.7201C5.42599 45.5453 4.72383 45.4431 3.49581 45.4935C2.18792 45.5471 0.187012 46.0314 0.187012 46.0314C0.187012 46.0314 1.0801 45.6712 1.66979 45.4935C3.22185 45.0256 4.15457 44.9032 5.7749 44.8866C7.17692 44.8722 7.96094 45.0448 9.34455 45.2728C11.6687 45.6557 12.9365 46.0827 15.1796 46.8039C19.1826 48.0908 22.4322 49.9756 25.0648 51.0799L31.8059 53.9076C31.8059 53.9076 33.7839 54.4788 34.8401 54.5973L37.5448 54.9007C38.6011 55.0193 39.4565 54.8866 40.634 54.5973C42.2928 54.1897 43.1596 53.6615 44.5881 52.7214C45.9711 51.8111 46.654 51.1448 47.787 49.935C49.7681 47.8196 50.3518 46.2004 51.8235 43.7003C53.0875 41.5529 53.4604 40.1486 54.8577 38.0863C55.3863 37.3061 55.6696 36.854 56.2855 36.1414C56.6858 35.6783 56.8959 35.3965 57.3702 35.0103C57.8917 34.5856 58.8392 34.1137 58.8392 34.1137C58.8392 34.1137 61.4284 32.9688 61.3242 32.6102C61.2201 32.2516 60.7831 31.787 60.4181 31.2722C59.3565 29.775 58.9727 28.6602 57.4663 27.6169C57.043 27.3237 56.8071 27.1388 56.3267 26.9548C55.8855 26.7858 55.6146 26.7517 55.146 26.6927C54.5182 26.6137 53.5259 26.6927 53.5259 26.6927C53.5259 26.6927 52.5332 26.8497 51.9196 27.0376C50.6396 27.4294 48.8716 28.61 48.8716 28.61Z" fill="white"/>
<path d="M6.68104 45.728C7.98006 45.917 8.69803 46.1049 9.96238 46.459C11.7252 46.9528 12.6672 47.3842 14.3695 48.0591C16.6696 48.971 17.9205 49.5789 20.1634 50.6247C23.5346 52.1966 25.2108 53.5496 28.6756 54.9007C29.9829 55.4105 30.7276 55.6691 32.0668 56.087C33.7249 56.6044 34.6354 57.0705 36.3641 57.2319C37.8501 57.3706 38.7173 57.3321 40.1809 57.0388C41.8284 56.7085 42.7125 56.285 44.2036 55.5077C45.7045 54.7253 46.5282 54.2003 47.787 53.0662C48.7564 52.1929 49.21 51.6035 50.0249 50.5833C51.2917 48.9975 51.8296 47.9761 52.8806 46.2383C54.5284 43.5138 54.9326 41.6829 56.6837 39.0242C57.4738 37.8247 57.8041 37.0386 58.8392 36.0448C59.3411 35.563 59.6307 35.2864 60.2259 34.9275C60.7403 34.6173 61.0612 34.4953 61.6263 34.293C62.3589 34.0308 62.7905 33.9211 63.5622 33.824C64.4187 33.7163 65.7726 33.824 65.7726 33.824C65.7726 33.824 63.7442 32.75 62.6148 31.824C62.1149 31.4141 61.8411 31.173 61.3929 30.7067C60.8612 30.1534 60.6397 29.775 60.1435 29.1894C59.6165 28.5673 59.3852 28.1516 58.7706 27.6169C58.1432 27.0711 57.7495 26.7843 56.9857 26.4582C56.0557 26.0611 55.4561 25.9412 54.4458 25.9617C53.53 25.9802 53.0175 26.1542 52.153 26.4582C51.4489 26.7058 51.0515 26.8683 50.4231 27.2721C49.7504 27.7043 48.8716 28.61 48.8716 28.61C48.8716 28.61 50.6396 27.4294 51.9196 27.0376C52.5332 26.8497 53.5259 26.6927 53.5259 26.6927C53.5259 26.6927 54.5182 26.6137 55.146 26.6927C55.6146 26.7517 55.8855 26.7858 56.3267 26.9548C56.8071 27.1388 57.043 27.3237 57.4663 27.6169C58.9727 28.6602 59.3565 29.775 60.4181 31.2722C60.7831 31.787 61.2201 32.2516 61.3243 32.6102C61.4284 32.9688 58.8392 34.1137 58.8392 34.1137C58.8392 34.1137 57.8917 34.5856 57.3702 35.0103C56.8959 35.3965 56.6858 35.6783 56.2855 36.1414C55.6696 36.854 55.3863 37.3061 54.8577 38.0863C53.4604 40.1486 53.0875 41.5529 51.8235 43.7003C50.3518 46.2004 49.7681 47.8196 47.787 49.935C46.654 51.1448 45.9711 51.8111 44.5881 52.7214C43.1596 53.6615 42.2928 54.1897 40.634 54.5973C39.4565 54.8866 38.6011 55.0193 37.5448 54.9007M6.68104 45.728L6.62732 45.7201M25.0648 51.0799C22.4322 49.9756 19.1826 48.0908 15.1796 46.8039C12.9365 46.0827 11.6687 45.6557 9.34455 45.2728C7.96094 45.0448 7.17692 44.8722 5.7749 44.8866C4.15457 44.9032 3.22185 45.0256 1.66979 45.4935C1.0801 45.6712 0.187012 46.0314 0.187012 46.0314C0.187012 46.0314 2.18792 45.5471 3.49581 45.4935C4.72383 45.4431 5.42599 45.5453 6.62732 45.7201C6.64512 45.7227 6.66302 45.7253 6.68104 45.728M34.8401 54.5973C33.7839 54.4788 31.8059 53.9076 31.8059 53.9076C29.1733 52.8033 27.6974 52.1842 25.0648 51.0799M25.0648 51.0799L31.8059 53.9076M34.8401 54.5973C35.8964 54.7158 36.4886 54.7822 37.5448 54.9007M34.8401 54.5973L37.5448 54.9007" stroke="white"/>
<path d="M14.9519 0.309082L18.2518 4.50387C18.2518 4.50387 21.1853 7.99339 23.2497 10.0509C24.4737 11.2709 25.1686 11.9502 26.4811 13.0728C27.7566 14.1638 28.4883 14.7619 29.8632 15.7222C31.1206 16.6004 33.1905 17.8058 33.1905 17.8058C33.1905 17.8058 35.1443 18.98 36.2577 19.917C37.3809 20.8622 37.9654 21.462 38.8867 22.6077C39.3662 23.2039 40.0369 24.1946 40.0369 24.1946L40.9132 25.8504C40.9132 25.8504 41.6268 27.392 41.9402 28.4308C42.096 28.9472 42.1936 29.2369 42.2825 29.7692C42.3804 30.3553 42.392 31.2871 42.392 31.2871L41.2008 28.6929C41.2008 28.6929 40.4093 27.2692 39.8315 26.4023C39.2858 25.5837 38.9771 25.1216 38.339 24.3739C37.7103 23.6373 37.3271 23.2459 36.6 22.6077C35.8597 21.9579 34.5872 21.0899 34.5872 21.0899L32.547 19.917C32.547 19.917 29.9855 18.5477 28.4392 17.516C27.4456 16.8531 26.8896 16.4746 25.9608 15.7222C25.0665 14.9977 24.5882 14.5598 23.77 13.749C22.3697 12.3613 21.6816 11.4813 20.4837 9.91295C19.2182 8.25594 17.4987 5.48358 17.4987 5.48358C17.4987 5.48358 16.5607 3.96915 16.061 2.94463C15.8098 2.42952 15.6802 2.13487 15.4585 1.60616C15.2483 1.10471 14.9519 0.309082 14.9519 0.309082Z" fill="white" stroke="white"/>
<path d="M16.705 12.3836C17.5259 14.0182 18.1591 14.8481 19.2705 16.2976C20.3149 17.6597 22.179 19.5893 22.179 19.5893L21.2324 19.3403C21.2324 19.3403 20.5731 19.0949 20.176 18.8839C19.3873 18.4649 18.3514 17.5009 18.3514 17.5009C18.3514 17.5009 17.1925 16.4288 16.5541 15.6476C15.905 14.8532 15.5599 14.3806 15.0724 13.4762C14.5665 12.5376 14.3294 11.9738 14.0435 10.9452C13.758 9.91835 13.6695 9.3135 13.6182 8.2483C13.5653 7.15092 13.6254 6.52576 13.7965 5.44072C13.8799 4.91243 14.0709 4.09916 14.0709 4.09916C14.0709 4.09916 14.2124 3.72815 14.3316 3.50445C14.4055 3.36572 14.5374 3.15869 14.5374 3.15869C14.5374 3.15869 14.6485 6.07934 15.0724 7.88871C15.4987 9.70799 15.8675 10.7158 16.705 12.3836Z" fill="white"/>
<path d="M19.8193 24.1533C21.0367 25.2294 21.795 25.7471 23.1394 26.6567C25.0006 27.9159 28.1195 29.5334 28.1195 29.5334C28.1195 29.5334 27.3485 29.5751 26.8573 29.5334C26.2929 29.4855 25.9803 29.4081 25.4305 29.2706C24.3325 28.996 23.7501 28.708 22.7278 28.2195C21.5388 27.6513 20.8876 27.279 19.8193 26.5045C19.2806 26.114 18.4885 25.4396 18.4885 25.4396C18.4885 25.4396 17.6472 24.7112 17.1578 24.1948C16.6205 23.628 16.3034 23.3095 15.8682 22.6597C15.4028 21.9649 15.2242 21.5144 14.949 20.7234C14.7025 20.0151 14.6064 19.5986 14.4962 18.8563C14.3875 18.1232 14.3865 16.9615 14.3865 16.9615C14.3865 16.9615 14.8962 18.1599 15.3057 18.8839C15.7303 19.6348 16.5267 20.7234 16.5267 20.7234L18.0632 22.4522C18.0632 22.4522 19.1042 23.5212 19.8193 24.1533Z" fill="white"/>
<path d="M16.705 12.3836C17.5259 14.0182 18.1591 14.8481 19.2705 16.2976C20.3149 17.6597 22.179 19.5893 22.179 19.5893L21.2324 19.3403C21.2324 19.3403 20.5731 19.0949 20.176 18.8839C19.3873 18.4649 18.3514 17.5009 18.3514 17.5009C18.3514 17.5009 17.1925 16.4288 16.5541 15.6476C15.905 14.8532 15.5599 14.3806 15.0724 13.4762C14.5665 12.5376 14.3294 11.9738 14.0435 10.9452C13.758 9.91835 13.6695 9.3135 13.6182 8.2483C13.5653 7.15092 13.6254 6.52576 13.7965 5.44072C13.8799 4.91243 14.0709 4.09916 14.0709 4.09916C14.0709 4.09916 14.2124 3.72815 14.3316 3.50445C14.4055 3.36572 14.5374 3.15869 14.5374 3.15869C14.5374 3.15869 14.6485 6.07934 15.0724 7.88871C15.4987 9.70799 15.8675 10.7158 16.705 12.3836Z" stroke="white"/>
<path d="M19.8193 24.1533C21.0367 25.2294 21.795 25.7471 23.1394 26.6567C25.0006 27.9159 28.1195 29.5334 28.1195 29.5334C28.1195 29.5334 27.3485 29.5751 26.8573 29.5334C26.2929 29.4855 25.9803 29.4081 25.4305 29.2706C24.3325 28.996 23.7501 28.708 22.7278 28.2195C21.5388 27.6513 20.8876 27.279 19.8193 26.5045C19.2806 26.114 18.4885 25.4396 18.4885 25.4396C18.4885 25.4396 17.6472 24.7112 17.1578 24.1948C16.6205 23.628 16.3034 23.3095 15.8682 22.6597C15.4028 21.9649 15.2242 21.5144 14.949 20.7234C14.7025 20.0151 14.6064 19.5986 14.4962 18.8563C14.3875 18.1232 14.3865 16.9615 14.3865 16.9615C14.3865 16.9615 14.8962 18.1599 15.3057 18.8839C15.7303 19.6348 16.5267 20.7234 16.5267 20.7234L18.0632 22.4522C18.0632 22.4522 19.1042 23.5212 19.8193 24.1533Z" stroke="white"/>
</svg>
