<svg width="32" height="31" viewBox="0 0 32 31" fill="none" xmlns="http://www.w3.org/2000/svg">
<path d="M24.2867 8.88672H8.15332V21.7002H24.2867V8.88672Z" fill="black"/>
<path d="M31.2968 12.8004C31.2862 12.653 31.2764 12.5015 31.2664 12.3468C31.1673 10.8102 31.044 8.89792 29.9054 7.24995C29.8883 7.22541 29.8703 7.20152 29.8512 7.17842C29.1743 6.35798 28.065 5.74649 26.8858 5.54266C25.4846 5.29841 20.7724 5.1665 16.3441 5.1665C11.9152 5.1665 7.20284 5.29841 5.80577 5.5424C4.86716 5.70397 4.02605 6.09457 3.30222 6.70658C1.91033 7.8936 1.70278 9.70891 1.53614 11.1673C1.52019 11.3071 1.50437 11.4453 1.48787 11.581C1.48637 11.594 1.48487 11.607 1.48391 11.6202C1.28414 14.0602 1.28373 16.3982 1.48241 19.6898C1.48296 19.6989 1.48378 19.7083 1.48446 19.7176C1.59642 20.9755 1.68315 21.6237 1.92765 22.3746C2.22356 23.3097 2.62557 24.0019 3.14785 24.4831C3.80828 25.1046 4.69411 25.533 5.70568 25.7214C6.95643 25.9586 8.02526 26.0452 13.8019 26.1431L13.8046 26.1433C14.8501 26.1586 15.8539 26.1665 16.8291 26.1665C20.5667 26.1665 23.1288 26.0511 26.7155 25.8029C26.7505 25.8005 26.7853 25.7966 26.8199 25.7911C27.8184 25.6334 28.7293 25.2048 29.462 24.5444C29.9384 24.1068 30.2249 23.6901 30.5161 23.0136C30.9841 21.9495 31.1276 20.9138 31.2975 18.5216C31.3459 17.7475 31.3459 13.5836 31.2968 12.8004ZM21.1478 16.3555C19.2642 17.262 15.611 19.0273 12.8863 20.3876C12.4093 20.6257 11.8333 20.3026 11.8333 19.7976V11.6337C11.8333 11.134 12.4011 10.811 12.8776 11.0387C15.7451 12.4091 18.231 13.7536 21.1467 15.168C21.663 15.4184 21.6649 16.1065 21.1478 16.3555Z" fill="white"/>
</svg>
